<?xml version="1.0" encoding="UTF-8" standalone="no"?>
<!-- Created with Inkscape (http://www.inkscape.org/) -->

<svg
   version="1.1"
   id="svg1"
   width="320"
   height="190.66667"
   viewBox="0 0 320 190.66667"
   sodipodi:docname="dsg-logo.svg"
   inkscape:version="1.4.2 (f4327f4, 2025-05-13)"
   xmlns:inkscape="http://www.inkscape.org/namespaces/inkscape"
   xmlns:sodipodi="http://sodipodi.sourceforge.net/DTD/sodipodi-0.dtd"
   xmlns="http://www.w3.org/2000/svg"
   xmlns:svg="http://www.w3.org/2000/svg">
  <defs
     id="defs1">
    <inkscape:path-effect
       effect="skeletal"
       id="path-effect12"
       is_visible="true"
       lpeversion="1"
       pattern="M 0,18.867925 C 0,8.4528302 8.4528302,0 18.867925,0 c 10.415094,0 18.867924,8.4528302 18.867924,18.867925 0,10.415094 -8.45283,18.867924 -18.867924,18.867924 C 8.4528302,37.735849 0,29.283019 0,18.867925 Z"
       copytype="single_stretched"
       prop_scale="1"
       scale_y_rel="false"
       spacing="0"
       normal_offset="0"
       tang_offset="0"
       prop_units="false"
       vertical_pattern="false"
       hide_knot="false"
       fuse_tolerance="0" />
    <inkscape:path-effect
       effect="skeletal"
       id="path-effect11"
       is_visible="true"
       lpeversion="1"
       pattern="M 0,18.867925 C 0,8.4528302 8.4528302,0 18.867925,0 c 10.415094,0 18.867924,8.4528302 18.867924,18.867925 0,10.415094 -8.45283,18.867924 -18.867924,18.867924 C 8.4528302,37.735849 0,29.283019 0,18.867925 Z"
       copytype="single_stretched"
       prop_scale="1"
       scale_y_rel="false"
       spacing="0"
       normal_offset="0"
       tang_offset="0"
       prop_units="false"
       vertical_pattern="false"
       hide_knot="false"
       fuse_tolerance="0" />
    <inkscape:path-effect
       effect="skeletal"
       id="path-effect10"
       is_visible="true"
       lpeversion="1"
       pattern="M 0,18.867925 C 0,8.4528302 8.4528302,0 18.867925,0 c 10.415094,0 18.867924,8.4528302 18.867924,18.867925 0,10.415094 -8.45283,18.867924 -18.867924,18.867924 C 8.4528302,37.735849 0,29.283019 0,18.867925 Z"
       copytype="single_stretched"
       prop_scale="1"
       scale_y_rel="false"
       spacing="0"
       normal_offset="0"
       tang_offset="0"
       prop_units="false"
       vertical_pattern="false"
       hide_knot="false"
       fuse_tolerance="0" />
    <inkscape:path-effect
       effect="skeletal"
       id="path-effect9"
       is_visible="true"
       lpeversion="1"
       pattern="M 0,18.867925 C 0,8.4528302 8.4528302,0 18.867925,0 c 10.415094,0 18.867924,8.4528302 18.867924,18.867925 0,10.415094 -8.45283,18.867924 -18.867924,18.867924 C 8.4528302,37.735849 0,29.283019 0,18.867925 Z"
       copytype="single_stretched"
       prop_scale="1"
       scale_y_rel="false"
       spacing="0"
       normal_offset="0"
       tang_offset="0"
       prop_units="false"
       vertical_pattern="false"
       hide_knot="false"
       fuse_tolerance="0" />
    <inkscape:path-effect
       effect="spiro"
       id="path-effect8"
       is_visible="true"
       lpeversion="1" />
    <inkscape:path-effect
       effect="bspline"
       id="path-effect7"
       is_visible="true"
       lpeversion="1.3"
       weight="33.333333"
       steps="2"
       helper_size="0"
       apply_no_weight="true"
       apply_with_weight="true"
       only_selected="false"
       uniform="false" />
  </defs>
  <sodipodi:namedview
     id="namedview1"
     pagecolor="#ffffff"
     bordercolor="#000000"
     borderopacity="0.25"
     inkscape:showpageshadow="2"
     inkscape:pageopacity="0.0"
     inkscape:pagecheckerboard="0"
     inkscape:deskcolor="#d1d1d1"
     showguides="true"
     inkscape:zoom="2.9711538"
     inkscape:cx="229.20389"
     inkscape:cy="101.47573"
     inkscape:window-width="3440"
     inkscape:window-height="1351"
     inkscape:window-x="1911"
     inkscape:window-y="-9"
     inkscape:window-maximized="1"
     inkscape:current-layer="g1" />
  <path
     id="path24"
     style="display:inline;fill:#e8d741;fill-opacity:1"
     inkscape:label="S box"
     d="m 140.89062,53.533203 -0.87695,2.673828 -34.51953,95.667969 -0.002,0.002 c -0.76844,0.80101 -1.15615,1.61901 -1.15625,2.43946 -7.4e-4,6.22719 21.84923,11.27541 48.80273,11.27539 26.95351,2e-5 48.80348,-5.0482 48.80274,-11.27539 3.8e-4,-0.16673 -0.0152,-0.33343 -0.0469,-0.5 l 1.39258,-0.004 V 57.216797 l -2.66016,-0.04297 h -0.002 c -4.23958,1.837506 -15.88298,3.072091 -28.97461,3.072266 -15.54857,3.6e-5 -28.9661,-4.421635 -30.75977,-6.712891 z m 14.67579,31.138672 c 9.02517,0 15.89973,1.686197 20.62109,5.058594 4.75347,3.340279 7.57921,8.673174 8.47852,15.996091 l -20.57227,1.20313 c -0.54601,-3.17969 -1.70226,-5.49219 -3.46875,-6.937502 -1.73438,-1.445314 -4.14323,-2.167969 -7.22656,-2.167969 -2.53733,0 -4.4477,0.546657 -5.73242,1.638672 -1.28473,1.059899 -1.92774,2.360679 -1.92774,3.902339 0,1.12414 0.52995,2.13585 1.58984,3.03516 1.02778,0.93142 3.47006,1.79861 7.32422,2.60156 9.53907,2.05556 16.3635,4.14388 20.47461,6.26367 4.14323,2.08768 7.14692,4.68924 9.00977,7.80469 1.89496,3.11546 2.8418,6.59896 2.8418,10.45313 0,4.52864 -1.25261,8.70529 -3.75782,12.52734 -2.50521,3.82205 -6.00542,6.72743 -10.50195,8.71875 -4.49653,1.9592 -10.16666,2.93945 -17.00781,2.93945 -12.01216,0 -20.33008,-2.31249 -24.95508,-6.9375 -4.625,-4.625 -7.24327,-10.5026 -7.85352,-17.63281 l 20.76563,-1.30078 c 0.44965,3.3724 1.36502,5.94249 2.74609,7.70899 2.24827,2.8585 5.45942,4.2871 9.63477,4.2871 3.11545,0 5.50759,-0.72265 7.17773,-2.16796 1.70226,-1.47744 2.55469,-3.18034 2.55469,-5.10743 0,-1.83073 -0.80425,-3.46875 -2.41016,-4.91406 -1.6059,-1.44531 -5.33029,-2.80903 -11.17578,-4.09375 -9.57118,-2.15191 -16.39757,-5.01107 -20.47656,-8.57617 -4.11111,-3.56511 -6.16602,-8.11046 -6.16602,-13.63477 0,-3.62934 1.04319,-7.049908 3.13086,-10.261715 2.1198,-3.243925 5.28472,-5.780598 9.49219,-7.611328 4.23959,-1.862848 10.03559,-2.794922 17.39063,-2.794922 z" />
  <g
     inkscape:groupmode="layer"
     inkscape:label="Image"
     id="g1"
     style="display:inline">
    <ellipse
       style="fill:#e8d741;fill-opacity:1;stroke-width:0.531722"
       id="path1-8-1"
       cx="173.29126"
       cy="50.11327"
       rx="29.449841"
       ry="6.563108"
       inkscape:label="S cover" />
    <text
       xml:space="preserve"
       style="font-size:48px;text-align:start;writing-mode:lr-tb;direction:ltr;text-anchor:start;white-space:pre;inline-size:224.338;fill:#6e6e6e;fill-opacity:1"
       x="25.915857"
       y="28.271845"
       id="text2"
       transform="translate(-8.4142398,25.242719)"
       inkscape:label="MIT"><tspan
         x="25.915857"
         y="28.271845"
         id="tspan3"><tspan
           style="font-weight:900;font-family:Arial;-inkscape-font-specification:'Arial Heavy'"
           id="tspan1">MIT</tspan></tspan></text>
    <path
       id="path18"
       style="display:inline;fill:#d63434;fill-opacity:1;stroke-width:0.33657"
       inkscape:label="D box"
       d="m 125.61328,76.570312 c -0.72218,0 -1.01846,0.220782 -1.30078,0.96875 -0.73934,1.95872 -7.0541,4.277171 -15.625,5.738282 -9.211242,1.57027 -20.408846,2.499188 -31.958984,2.849609 1.420102,0.367011 2.726517,0.814433 3.917968,1.341797 3.950523,1.734376 7.209852,4.224825 9.779297,7.46875 2.569446,3.243925 4.433594,7.01649 5.589844,11.32031 1.15625,4.30382 1.734375,8.86589 1.734375,13.6836 0,7.54774 -0.867187,13.40863 -2.601562,17.58398 -1.702258,4.14323 -4.079643,7.62869 -7.13086,10.45508 -3.051216,2.79427 -6.327256,4.65647 -9.828125,5.58789 -4.785592,1.28472 -9.121526,1.92773 -13.007812,1.92773 H 32.757812 V 84.867188 h 2.306641 C 23.465455,83.70484 14.177277,81.856569 9.828125,79.425781 9.0202785,78.974267 8.3161836,78.63999 8.2285156,78.664062 l -0.00195,0.002 -0.00195,0.002 h -0.00195 c -0.048958,0.04898 2.0165334,15.53837 4.5898434,34.419918 3.849623,28.24644 4.615793,34.52376 4.320312,35.42773 -0.490926,1.50191 0.629889,3.81211 2.517579,5.18946 5.38293,3.92762 17.551005,6.99956 30.835937,7.7832 4.412522,0.26028 13.64901,0.20561 17.837891,-0.10547 19.134712,-1.42101 32.310552,-6.33045 32.310552,-12.03906 0,-0.53844 5.83016,-17.08157 12.95703,-36.76172 7.12686,-19.68015 12.95898,-35.83299 12.95898,-35.89648 v -0.002 -0.002 l -0.002,-0.002 v -0.002 l -0.002,-0.002 c -0.0482,-0.05802 -0.45102,-0.105469 -0.9336,-0.105469 z M 54.582031,100.86328 v 38.58984 h 5.347657 c 4.560765,0 7.805337,-0.49848 9.732421,-1.49414 1.927084,-1.02777 3.437283,-2.79361 4.529297,-5.29882 1.092015,-2.53733 1.636719,-6.63238 1.636719,-12.28516 0,-7.48351 -1.219183,-12.60699 -3.660156,-15.36914 -2.440973,-2.76215 -6.487845,-4.14258 -12.140625,-4.14258 z" />
    <path
       style="fill:#d63434;fill-opacity:1;stroke-width:0.33657"
       d="M 54.860843,80.072022 C 31.604651,78.820856 17.949721,76.726277 11.308495,73.391369 8.3127048,71.887025 7.6184972,70.945392 8.3391568,69.363717 c 0.8543737,-1.875146 8.0211112,-4.414846 16.6387042,-5.89631 11.913888,-2.048137 24.00575,-2.861161 42.672626,-2.869191 18.335817,-0.0079 30.197821,0.751629 42.071203,2.693796 9.24497,1.512229 16.93962,4.251274 17.6426,6.28019 0.55097,1.590189 -0.16191,2.452241 -3.23937,3.917226 -5.86336,2.791172 -17.67354,4.888825 -34.429125,6.11509 -4.918251,0.359945 -30.462146,0.702758 -34.834952,0.467504 z"
       id="path19"
       inkscape:label="D cover" />
    <path
       id="path25"
       style="display:inline;fill:#6e6e6e;fill-opacity:1"
       inkscape:label="G box"
       d="m 209.01367,31.757812 0.17578,72.917968 c 0.79128,-3.6116 2.03493,-6.933831 3.73243,-9.968749 3.17968,-5.717016 7.8381,-10.05295 13.97265,-13.007812 4.78559,-2.280383 11.22461,-3.421875 19.31836,-3.421875 7.80469,0 13.63411,0.707899 17.48828,2.121094 3.88629,1.413194 7.09744,3.612629 9.63477,6.599609 2.56944,2.954862 4.49652,6.712672 5.78125,11.273437 l -21.05274,3.757816 c -0.86718,-2.665803 -2.34396,-4.705949 -4.43164,-6.119144 -2.05555,-1.413195 -4.69053,-2.11914 -7.90234,-2.11914 -4.78559,0 -8.60634,1.669486 -11.46485,5.009765 -2.82638,3.308159 -4.24023,8.559459 -4.24023,15.753909 0,7.6441 1.4286,13.10481 4.28711,16.38086 2.89063,3.27604 6.90603,4.91406 12.04492,4.91406 2.44097,0 4.77018,-0.35395 6.98633,-1.06055 2.21615,-0.70659 4.75282,-1.91102 7.61133,-3.61328 v -6.64844 h -14.59766 v -14.69336 h 33.72461 v 15.84766 c 13.94252,-39.393481 31.58203,-91.015624 31.58203,-91.015624 l -2.83008,-0.03711 c -3.44258,2.914655 -25.12882,5.085872 -50.34765,5.085938 -24.69975,8.1e-5 -45.43751,-5.114108 -49.47266,-7.957032 z m 0.22461,93.406248 0.0977,40.14844 c 0.007,1.28819 -0.0463,2.30043 0.16164,3.36884 10e-4,5.39028 11.08564,9.36357 26.60594,9.36358 15.25752,6e-5 27.72815,-4.22791 28.0957,-9.52539 1.45947,-3.07199 4.90439,-12.23825 9.30859,-24.42969 -3.83412,2.20471 -7.361,3.8255 -10.57812,4.86328 -4.94618,1.57379 -10.82378,2.36133 -17.63281,2.36133 -8.38282,0 -15.22396,-1.4286 -20.52344,-4.28711 -5.26737,-2.8585 -9.36241,-7.11479 -12.28516,-12.76757 -1.44382,-2.82348 -2.52734,-5.85556 -3.25,-9.09571 z"
       sodipodi:nodetypes="ccccscccccscscssccccccccsccccscccscccc" />
    <ellipse
       style="display:inline;fill:#6e6e6e;fill-opacity:1;stroke-width:0.867201"
       id="path1-8"
       cx="264.6796"
       cy="25.110035"
       rx="52.673141"
       ry="9.760519"
       inkscape:label="G cover" />
  </g>
</svg>
